# xmcd
#
# Track frame offsets:
# 150
# 10597
# 24507
# 37650
# 51495
# 61092
# 73972
# 88675
# 101710
# 112185
# 123230
# 135160
# 145792
# 157327
# 170317
# 183660
# 196585
# 210935
# 223460
# 232927
# 245892
# 258405
#
# Disc length: 3625 seconds
#
#
# Revision: 0
# Processed by: cddbd v1.4PL0 Copyright (c) Steve Scherf et al.
# Submitted via: FreeRIP 2.30 
#
DISCID=3a0e2716
DTITLE=Kingston Trio - The Kingston Trio Collection
DYEAR=1900
DGENRE=Country
TTITLE0=Scarlet Ribbons
TTITLE1=Tom Dooley
TTITLE2=Seasons in the Sun
TTITLE3=Where have all the Flowers gone
TTITLE4=Raspberries, Strawberries
TTITLE5=The Tijuana Jail
TTITLE6=M.T.A.
TTITLE7=A Worried Man
TTITLE8=Coo Coo-u
TTITLE9=El Matador
TTITLE10=Bad Man's Blunder
TTITLE11=Everglades
TTITLE12=Scotch and Soda
TTITLE13=Jane, Jane, Jane
TTITLE14=One More Town
TTITLE15=Greenback Dollar
TTITLE16=Reverend Mr Black
TTITLE17=Desert Pete
TTITLE18=Ally Ally Oxen Free
TTITLE19=Patriot Game
TTITLE20=Blowin' in the Wind
TTITLE21=Rueben James
EXTD=HMV Easy
EXTT0=
EXTT1=
EXTT2=
EXTT3=
EXTT4=
EXTT5=
EXTT6=
EXTT7=
EXTT8=
EXTT9=
EXTT10=
EXTT11=
EXTT12=
EXTT13=
EXTT14=
EXTT15=
EXTT16=
EXTT17=
EXTT18=
EXTT19=
EXTT20=
EXTT21=
PLAYORDER=
